<svg xmlns="http://www.w3.org/2000/svg" version="1.1" xmlns:xlink="http://www.w3.org/1999/xlink" xmlns:svgjs="http://svgjs.dev/svgjs" width="1000" height="623" viewBox="0 0 1000 623"><g transform="matrix(1,0,0,1,-0.6060606060606233,0.2522267206477409)"><svg viewBox="0 0 396 247" data-background-color="#ed2647" preserveAspectRatio="xMidYMid meet" height="623" width="1000" xmlns="http://www.w3.org/2000/svg" xmlns:xlink="http://www.w3.org/1999/xlink"><g id="tight-bounds" transform="matrix(1,0,0,1,0.2400000000000091,-0.09999999999999432)"><svg viewBox="0 0 395.52 247.2" height="247.2" width="395.52"><g><svg></svg></g><g><svg viewBox="0 0 395.52 247.2" height="247.2" width="395.52"><mask id="35ff099a-947e-4ce2-82f2-c268d0cfe0ee"><rect width="640" height="400" fill="white"></rect><rect width="348.05760000000004" height="96.80841348481171" fill="black" y="75.19579325759415" x="23.731199999999973" id="transform-me"></rect></mask><g transform="matrix(1,0,0,1,39.55199999999999,84.27118233300075)"><svg viewBox="0 0 316.416 78.65763533399848" height="78.65763533399848" width="316.416"><g><svg viewBox="0 0 316.416 78.65763533399848" height="78.65763533399848" width="316.416"><g><svg viewBox="0 0 316.416 78.65763533399848" height="78.65763533399848" width="316.416"><g><svg viewBox="0 0 316.416 78.65763533399848" height="78.65763533399848" width="316.416"><g id="textblocktransform"><svg viewBox="0 0 316.416 78.65763533399848" height="78.65763533399848" width="316.416" id="textblock"><g><svg viewBox="0 0 316.416 45.82468323396724" height="45.82468323396724" width="316.416"><g transform="matrix(1,0,0,1,0,0)"><svg width="316.416" viewBox="-2.3379310369491577 -40.20320510864258 301.0212097167969 44.45820617675781" height="45.82468323396724" data-palette-color="#ffffff"><path d="M17.15-0.8L17.15-0.8Q15.35-0.1 13.08 0 10.8 0.1 8.85-0.53 6.9-1.15 5.4-2.45L5.4-2.45Q2.8-4.6 2.05-7.8 1.3-11 2-13.55 2.7-16.1 4.13-18.53 5.55-20.95 7.23-22.63 8.9-24.3 11.1-25.45 13.3-26.6 15.7-26.58 18.1-26.55 20.75-25.25L20.75-25.25Q21.15-25.05 21.63-24.65 22.1-24.25 22.45-23.95L22.45-23.95 23.1-23.3Q23.4-23 23.4-22.95L23.4-22.95Q24.2-22.25 24.25-21.15L24.25-21.15Q24.9-18.15 25.1-14.85 25.3-11.55 25.23-8.65 25.15-5.75 25.3-2.5L25.3-2.5Q25.35-1.5 24.65-0.75 23.95 0 22.9 0.05 21.85 0.1 21.1-0.6 20.35-1.3 20.3-2.3L20.3-2.3 20.3-3.05Q18.8-1.5 17.15-0.8L17.15-0.8ZM14.9-5.3L14.9-5.3Q15.65-5.5 16.1-5.7 16.55-5.9 17.23-6.3 17.9-6.7 18.65-7.3 19.4-7.9 20-8.8L20-8.8Q20.1-8.9 20.25-9L20.25-9Q20.25-15.75 19.4-19.85L19.4-19.85Q19.25-20.05 19.07-20.23 18.9-20.4 18.82-20.5 18.75-20.6 18.63-20.68 18.5-20.75 18.35-20.85L18.35-20.85Q15.95-22.15 13.3-20.93 10.65-19.7 8.65-16.35L8.65-16.35Q6.65-12.95 6.68-10.43 6.7-7.9 8.6-6.25L8.6-6.25Q9.75-5.3 11.45-5.05 13.15-4.8 14.9-5.3L14.9-5.3ZM34.2 0L34.2 0Q33.2 0 32.45-0.68 31.7-1.35 31.7-2.5L31.7-2.5Q31.7-6.45 31.65-9.3L31.65-9.3Q31.55-17.8 31.55-24.05L31.55-24.05Q31.55-25.2 32.25-25.85 32.95-26.5 33.95-26.5L33.95-26.5Q35-26.5 35.77-25.83 36.55-25.15 36.55-23.95L36.55-23.95 36.55-22.4Q39.65-26.45 44.7-26.45L44.7-26.45Q49.05-26.45 51.37-23.4 53.7-20.35 53.7-15.2L53.7-15.2Q53.7-9.5 53.55-7.7L53.55-7.7 53.3-4.35 53.15-2.2Q53.05-1.2 52.35-0.6 51.65 0 50.7 0L50.7 0Q49.7 0 48.95-0.68 48.2-1.35 48.2-2.5L48.2-2.5Q48.2-3.3 48.55-8.05L48.55-8.05Q48.8-11.3 48.8-13.15L48.8-13.15Q48.8-17.4 47.6-19.43 46.4-21.45 43.9-21.45L43.9-21.45Q42.1-21.45 40.17-20.35 38.25-19.25 36.55-17.55L36.55-17.55 36.65-10.45 36.7-2.5Q36.7-1.35 35.95-0.68 35.2 0 34.2 0L34.2 0ZM59.8-2.4L59.8-2.4Q59.7-6.15 59.82-13.9 59.95-21.65 59.95-24.05L59.95-24.05Q59.95-25.1 60.67-25.83 61.4-26.55 62.45-26.55 63.5-26.55 64.22-25.83 64.95-25.1 64.95-24.05L64.95-24.05Q64.95-21.65 64.82-13.95 64.7-6.25 64.8-2.5L64.8-2.5Q64.8-1.45 64.09-0.7 63.4 0.05 62.35 0.05 61.3 0.05 60.55-0.65 59.8-1.35 59.8-2.4L59.8-2.4ZM64.45-35.2L64.45-35.2Q65.3-34.35 65.3-33.1 65.3-31.85 64.45-31 63.6-30.15 62.35-30.15 61.1-30.15 60.25-31 59.4-31.85 59.4-33.1 59.4-34.35 60.25-35.2 61.1-36.05 62.37-36.08 63.65-36.1 64.45-35.2L64.45-35.2ZM101.79-2.2L101.79-2.2Q101.74-3.1 101.67-3.88 101.59-4.65 101.57-5.03 101.54-5.4 101.52-5.68 101.49-5.95 101.49-6.3L101.49-6.3 101.49-9.15Q101.49-9.95 101.57-11.98 101.64-14 101.62-15.4 101.59-16.8 101.34-18.05L101.34-18.05Q101.04-19.8 100.29-20.58 99.54-21.35 97.99-21.35L97.99-21.35Q94.54-21.3 91.09-17.15L91.09-17.15Q91.24-15.65 91.24-11.35L91.24-11.35Q91.24-8.2 91.39-2.55L91.39-2.55Q91.44-1.55 90.72-0.8 89.99-0.05 88.97 0 87.94 0.05 87.19-0.68 86.44-1.4 86.39-2.45L86.39-2.45Q86.24-8.1 86.24-11.35L86.24-11.35 86.24-13.85Q86.24-14.1 86.22-14.9 86.19-15.7 86.17-16.07 86.14-16.45 86.07-17.07 85.99-17.7 85.92-18.18 85.84-18.65 85.69-19.1L85.69-19.1Q85.29-20.5 84.59-21.05L84.59-21.05Q83.84-21.65 82.34-21.5L82.34-21.5Q80.69-21.35 79.49-20.6L79.49-20.6Q78.34-19.85 77.14-18.2L77.14-18.2Q76.89-17.9 76.59-17.65L76.59-17.65Q76.79-7.65 76.59-2.4L76.59-2.4Q76.54-1.35 75.79-0.65 75.04 0.05 73.99 0 72.94-0.05 72.24-0.8 71.54-1.55 71.59-2.6L71.59-2.6Q71.69-8.15 71.69-9.73 71.69-11.3 71.57-16.98 71.44-22.65 71.44-24.25L71.44-24.25Q71.44-25 72.17-25.75 72.89-26.5 73.89-26.5 74.89-26.5 75.69-25.88 76.49-25.25 76.44-23.55L76.44-23.55Q78.69-26.2 81.94-26.5L81.94-26.5Q85.39-26.8 87.69-24.95L87.69-24.95Q88.89-24 89.84-22.3L89.84-22.3Q92.94-26.2 97.99-26.5L97.99-26.5Q101.69-26.55 103.94-24.2L103.94-24.2Q105.69-22.15 106.29-18.95L106.29-18.95Q106.54-17.45 106.59-15.68 106.64-13.9 106.57-11.68 106.49-9.45 106.49-9.15L106.49-9.15 106.49-6.4Q106.49-6.15 106.52-5.9 106.54-5.65 106.57-5.33 106.59-5 106.64-4.25 106.69-3.5 106.79-2.6L106.79-2.6Q106.84-1.55 106.17-0.78 105.49 0 104.47 0.08 103.44 0.15 102.67-0.53 101.89-1.2 101.79-2.2L101.79-2.2ZM125.14 0.25L125.14 0.25Q121.44 0 118.69-1.25 115.94-2.5 114.49-4.4 113.04-6.3 112.39-7.9 111.74-9.5 111.59-11.08 111.44-12.65 111.74-15.15L111.74-15.15Q112.09-17.25 113.22-19.3 114.34-21.35 116.22-22.98 118.09-24.6 120.74-25.48 123.39-26.35 126.39-26L126.39-26Q129.29-25.65 131.34-24.43 133.39-23.2 134.84-21.3L134.84-21.3Q136.09-19.7 136.37-18.9 136.64-18.1 136.87-17.4 137.09-16.7 137.24-16.2 137.39-15.7 137.52-15.18 137.64-14.65 137.69-13.95L137.69-13.95Q137.74-13 137.34-12.2 136.94-11.4 136.14-10.95L136.14-10.95Q135.49-10.7 134.74-10.7L134.74-10.7 126.19-10.55Q117.19-10.5 117.19-10.35L117.19-10.35 117.04-10.35Q117.69-7.8 119.77-6.35 121.84-4.9 125.44-4.65L125.44-4.65Q127.39-4.55 128.69-4.85L128.69-4.85Q130.14-5.25 130.79-5.58 131.44-5.9 132.39-6.45L132.39-6.45Q133.34-6.8 134.29-6.35 135.24-5.9 135.59-4.95 135.94-4 135.52-3.1 135.09-2.2 134.19-1.7L134.19-1.7Q133.39-1.25 132.54-0.93 131.69-0.6 130.04-0.15 128.39 0.3 125.14 0.25L125.14 0.25ZM117.14-15.25L117.14-15.25Q120.04-15.4 132.19-15.55L132.19-15.55Q131.74-17.05 130.74-18.4L130.74-18.4Q128.74-20.7 125.79-21.05L125.79-21.05Q122.69-21.45 120.34-19.73 117.99-18 117.14-15.25L117.14-15.25ZM145.09-5.85L145.09-5.85Q143.64-8 143.14-12.25L143.14-12.25Q142.84-15.4 142.99-19.7L142.99-19.7Q143.09-22.5 143.41-27.25 143.74-32 143.79-33.4L143.79-33.4Q143.79-34.45 144.54-35.15 145.29-35.85 146.34-35.85 147.39-35.85 148.09-35.1 148.79-34.35 148.79-33.3L148.79-33.3Q148.74-31.95 148.41-27.15 148.09-22.35 147.99-19.55L147.99-19.55Q147.84-15.55 148.14-12.8L148.14-12.8Q148.44-9.75 149.19-8.65L149.19-8.65Q150.94-6.15 153.94-5.33 156.94-4.5 159.91-5.55 162.89-6.6 164.54-9.15L164.54-9.15Q167.24-13.15 167.39-20.1L167.39-20.1Q167.44-22.6 167.24-26.7L167.24-26.7Q166.94-32 166.89-33.3L166.89-33.3Q166.89-34.35 167.59-35.1 168.29-35.85 169.34-35.85 170.39-35.85 171.14-35.15 171.89-34.45 171.89-33.4L171.89-33.4Q171.94-32.2 172.19-27L172.19-27Q172.44-22.7 172.39-19.95L172.39-19.95Q172.19-11.6 168.74-6.35L168.74-6.35Q166.84-3.5 163.66-1.85 160.49-0.2 157.14 0 153.79 0.2 150.49-1.28 147.19-2.75 145.09-5.85L145.09-5.85ZM190.79 0.1L190.79 0.1Q187.94 0.15 185.21-0.9 182.49-1.95 180.74-3.95L180.74-3.95Q178.94-6.05 178.36-8.97 177.79-11.9 178.31-14.55 178.84-17.2 180.09-19.65L180.09-19.65Q181.09-21.5 182.49-22.98 183.89-24.45 185.76-25.48 187.64-26.5 189.76-26.58 191.89-26.65 194.34-25.65L194.34-25.65Q195.64-25.05 196.99-23.75L196.99-23.75 198.59-22.15Q199.39-21.5 199.49-20.45 199.59-19.4 198.91-18.63 198.24-17.85 197.19-17.75 196.14-17.65 195.39-18.35L195.39-18.35Q194.94-18.7 194.34-19.3L194.34-19.3 193.49-20.15Q192.79-20.85 192.34-21.05L192.34-21.05Q190.09-22.05 188.04-21.03 185.99-20 184.54-17.3L184.54-17.3Q183.04-14.5 183.06-11.7 183.09-8.9 184.54-7.25L184.54-7.25Q185.44-6.2 187.14-5.55 188.84-4.9 190.74-4.9L190.74-4.9Q194.59-5 195.69-7.65L195.69-7.65 195.64-7.9 195.64-9.35Q195.69-10.4 196.46-11.08 197.24-11.75 198.29-11.7 199.34-11.65 200.01-10.88 200.69-10.1 200.64-9.05L200.64-9.05 200.64-7.95Q200.69-6.7 200.29-5.75L200.29-5.75Q199.14-2.85 196.51-1.4 193.89 0.05 190.79 0.1L190.79 0.1ZM226.88-2.4L226.88-2.4Q226.83-1.35 226.08-0.65 225.33 0.05 224.31 0.03 223.28 0 222.58-0.75 221.88-1.5 221.88-2.5L221.88-2.5Q221.88-2.55 222.18-7.2L222.18-7.2Q222.48-12.3 222.28-14.95L222.28-14.95Q221.83-21.2 217.68-21.5L217.68-21.5Q215.48-21.65 214.06-20.83 212.63-20 211.28-17.95L211.28-17.95Q211.18-17.8 210.88-17.25L210.88-17.25Q211.23-6.45 211.23-2.45L211.23-2.45Q211.23-1.4 210.51-0.68 209.78 0.05 208.73 0.05 207.68 0.05 206.96-0.68 206.23-1.4 206.23-2.45L206.23-2.45Q206.23-4.75 205.83-18L205.83-18Q205.53-27.95 205.73-33.8L205.73-33.8Q205.78-34.8 206.53-35.52 207.28-36.25 208.31-36.2 209.33-36.15 210.06-35.4 210.78-34.65 210.73-33.6L210.73-33.6Q210.68-32.25 210.68-23.15L210.68-23.15Q213.88-26.85 218.18-26.5L218.18-26.5Q226.48-25.8 227.28-15.35L227.28-15.35Q227.43-12.45 227.36-10.3 227.28-8.15 227.08-5.55 226.88-2.95 226.88-2.4L226.88-2.4ZM233.33-2.4L233.33-2.4Q233.23-6.15 233.36-13.9 233.48-21.65 233.48-24.05L233.48-24.05Q233.48-25.1 234.21-25.83 234.93-26.55 235.98-26.55 237.03-26.55 237.76-25.83 238.48-25.1 238.48-24.05L238.48-24.05Q238.48-21.65 238.36-13.95 238.23-6.25 238.33-2.5L238.33-2.5Q238.33-1.45 237.63-0.7 236.93 0.05 235.88 0.05 234.83 0.05 234.08-0.65 233.33-1.35 233.33-2.4L233.33-2.4ZM237.98-35.2L237.98-35.2Q238.83-34.35 238.83-33.1 238.83-31.85 237.98-31 237.13-30.15 235.88-30.15 234.63-30.15 233.78-31 232.93-31.85 232.93-33.1 232.93-34.35 233.78-35.2 234.63-36.05 235.91-36.08 237.18-36.1 237.98-35.2L237.98-35.2ZM266.23-2.4L266.23-2.4Q266.18-1.35 265.43-0.65 264.68 0.05 263.65 0.03 262.63 0 261.93-0.75 261.23-1.5 261.23-2.5L261.23-2.5Q261.23-2.55 261.53-7.2L261.53-7.2Q261.83-12.3 261.63-14.95L261.63-14.95Q261.18-21.2 257.03-21.5L257.03-21.5Q254.83-21.65 253.4-20.83 251.98-20 250.63-17.95L250.63-17.95Q250.53-17.8 250.23-17.25L250.23-17.25Q250.58-6.45 250.58-2.45L250.58-2.45Q250.58-1.4 249.85-0.68 249.13 0.05 248.08 0.05 247.03 0.05 246.3-0.68 245.58-1.4 245.58-2.45L245.58-2.45Q245.58-4.75 245.18-18L245.18-18Q244.88-27.95 245.08-33.8L245.08-33.8Q245.13-34.8 245.88-35.52 246.63-36.25 247.65-36.2 248.68-36.15 249.4-35.4 250.13-34.65 250.08-33.6L250.08-33.6Q250.03-32.25 250.03-23.15L250.03-23.15Q253.23-26.85 257.53-26.5L257.53-26.5Q265.83-25.8 266.63-15.35L266.63-15.35Q266.78-12.45 266.7-10.3 266.63-8.15 266.43-5.55 266.23-2.95 266.23-2.4L266.23-2.4ZM286.52-0.8L286.52-0.8Q284.73-0.1 282.45 0 280.18 0.1 278.23-0.53 276.27-1.15 274.77-2.45L274.77-2.45Q272.18-4.6 271.43-7.8 270.68-11 271.38-13.55 272.07-16.1 273.5-18.53 274.93-20.95 276.6-22.63 278.27-24.3 280.48-25.45 282.68-26.6 285.07-26.58 287.48-26.55 290.13-25.25L290.13-25.25Q290.52-25.05 291-24.65 291.48-24.25 291.82-23.95L291.82-23.95 292.48-23.3Q292.77-23 292.77-22.95L292.77-22.95Q293.57-22.25 293.63-21.15L293.63-21.15Q294.27-18.15 294.48-14.85 294.68-11.55 294.6-8.65 294.52-5.75 294.68-2.5L294.68-2.5Q294.73-1.5 294.02-0.75 293.32 0 292.27 0.05 291.23 0.1 290.48-0.6 289.73-1.3 289.68-2.3L289.68-2.3 289.68-3.05Q288.18-1.5 286.52-0.8L286.52-0.8ZM284.27-5.3L284.27-5.3Q285.02-5.5 285.48-5.7 285.93-5.9 286.6-6.3 287.27-6.7 288.02-7.3 288.77-7.9 289.38-8.8L289.38-8.8Q289.48-8.9 289.63-9L289.63-9Q289.63-15.75 288.77-19.85L288.77-19.85Q288.63-20.05 288.45-20.23 288.27-20.4 288.2-20.5 288.13-20.6 288-20.68 287.88-20.75 287.73-20.85L287.73-20.85Q285.32-22.15 282.68-20.93 280.02-19.7 278.02-16.35L278.02-16.35Q276.02-12.95 276.05-10.43 276.07-7.9 277.98-6.25L277.98-6.25Q279.13-5.3 280.82-5.05 282.52-4.8 284.27-5.3L284.27-5.3Z" opacity="1" transform="matrix(1,0,0,1,0,0)" fill="#ffffff" class="wordmark-text-0" data-fill-palette-color="primary" id="text-0"></path></svg></g></svg></g><g transform="matrix(1,0,0,1,3.5,54.900072309373854)"><svg viewBox="0 0 309.416 23.757563024624634" height="23.757563024624634" width="309.416"><g transform="matrix(1,0,0,1,0,0)"><svg width="309.416" viewBox="-2.25 -40.150001525878906 691.780029296875 53.25" height="23.757563024624634" data-palette-color="#ffffff"><path d="M13.35 0.6Q7.35 0.6 4.55-2.73 1.75-6.05 1.75-13.15L1.75-13.15Q1.75-20.2 4.58-23.55 7.4-26.9 13.35-26.9L13.35-26.9Q18.75-26.9 21.25-24.3 23.75-21.7 23.75-16.55L23.75-16.55 19.25-16.55Q19.25-20.1 17.98-21.68 16.7-23.25 13.35-23.25L13.35-23.25Q9.7-23.25 8-20.88 6.3-18.5 6.3-13.15L6.3-13.15 6.3-12.95Q6.3-7.65 7.95-5.35 9.6-3.05 13.35-3.05L13.35-3.05Q16.65-3.05 18.07-4.73 19.5-6.4 19.5-9.75L19.5-9.75 23.75-9.75Q23.75-5.25 21.2-2.33 18.65 0.6 13.35 0.6L13.35 0.6ZM101.79 0L101.79-36.15 106.19-36.15 106.19 0 101.79 0ZM196.88 0.6Q190.83 0.6 187.78-2.78 184.73-6.15 184.73-13.15L184.73-13.15Q184.73-20.15 187.78-23.53 190.83-26.9 196.88-26.9L196.88-26.9Q202.93-26.9 205.98-23.53 209.03-20.15 209.03-13.15L209.03-13.15Q209.03-6.15 205.98-2.78 202.93 0.6 196.88 0.6L196.88 0.6ZM196.88-3.05Q200.88-3.05 202.68-5.38 204.48-7.7 204.48-12.95L204.48-12.95 204.48-13.35Q204.48-18.6 202.68-20.93 200.88-23.25 196.88-23.25L196.88-23.25Q192.88-23.25 191.08-20.93 189.28-18.6 189.28-13.35L189.28-13.35 189.28-12.95Q189.28-7.7 191.08-5.38 192.88-3.05 196.88-3.05L196.88-3.05ZM293.52 0.55Q290.82 0.55 289.57-1.05 288.32-2.65 288.32-5L288.32-5 288.32-22.65 285.12-22.65 285.12-26.3 288.37-26.3 289.32-33.6 292.72-33.6 292.72-26.3 297.17-26.3 297.17-22.65 292.72-22.65 292.72-5.4Q292.72-3.05 294.92-3.05L294.92-3.05 297.17-3.05 297.17-0.15Q296.52 0.15 295.47 0.35 294.42 0.55 293.52 0.55L293.52 0.55ZM374.91 0L374.91-36.15 379.31-36.15 379.31-23.35 379.66-23.35Q382.41-26.9 387.96-26.9L387.96-26.9Q396.16-26.9 396.16-17.95L396.16-17.95 396.16 0 391.76 0 391.76-17.65Q391.76-20.8 390.36-22.03 388.96-23.25 386.31-23.25L386.31-23.25Q384.41-23.25 382.81-22.33 381.21-21.4 380.26-19.65 379.31-17.9 379.31-15.55L379.31-15.55 379.31 0 374.91 0ZM476.15-31.4L476.15-36.15 480.5-36.15 480.5-31.4 476.15-31.4ZM476.15 0L476.15-26.3 480.55-26.3 480.55 0 476.15 0ZM560.69 0L560.69-26.3 564.04-26.3 564.54-22.75 564.89-22.75Q567.79-26.9 573.74-26.9L573.74-26.9Q577.69-26.9 579.82-24.78 581.94-22.65 581.94-17.95L581.94-17.95 581.94 0 577.54 0 577.54-17.65Q577.54-20.8 576.14-22.03 574.74-23.25 572.09-23.25L572.09-23.25Q570.19-23.25 568.59-22.33 566.99-21.4 566.04-19.65 565.09-17.9 565.09-15.55L565.09-15.55 565.09 0 560.69 0ZM666.63 9.1Q663.73 9.1 661.61 7.63 659.48 6.15 659.48 2.75L659.48 2.75Q659.48-1.35 663.73-2.85L663.73-2.85Q662.53-3.5 661.76-4.53 660.98-5.55 660.98-6.9L660.98-6.9Q660.98-8.85 662.36-9.85 663.73-10.85 665.38-11.25L665.38-11.25Q663.73-12.45 662.78-14.2 661.83-15.95 661.83-18.05L661.83-18.05Q661.83-22.25 664.68-24.58 667.53-26.9 672.48-26.9L672.48-26.9Q675.23-26.9 677.48-26L677.48-26Q680.73-27.55 681.28-30.55L681.28-30.55 685.48-30.55Q685.48-28.2 684.11-26.5 682.73-24.8 680.38-24.25L680.38-24.25Q683.18-21.75 683.18-18.05L683.18-18.05Q683.18-13.85 680.31-11.53 677.43-9.2 672.48-9.2L672.48-9.2 668.28-9.2Q666.93-9.2 666.21-8.6 665.48-8 665.48-7.05L665.48-7.05Q665.48-6.1 666.21-5.5 666.93-4.9 668.28-4.9L668.28-4.9 678.83-4.9Q681.93-4.9 683.73-3.03 685.53-1.15 685.53 1.5L685.53 1.5Q685.53 3.4 684.68 5.15 683.83 6.9 681.96 8 680.08 9.1 677.23 9.1L677.23 9.1 666.63 9.1ZM672.53-12.6Q675.63-12.6 677.23-14.03 678.83-15.45 678.83-18.05L678.83-18.05Q678.83-20.65 677.23-22.08 675.63-23.5 672.53-23.5L672.53-23.5Q669.43-23.5 667.83-22.08 666.23-20.65 666.23-18.05L666.23-18.05Q666.23-15.45 667.83-14.03 669.43-12.6 672.53-12.6L672.53-12.6ZM667.03 5.55L677.33 5.55Q678.98 5.55 680.08 4.65 681.18 3.75 681.18 2.25L681.18 2.25Q681.18 0.75 680.31-0.13 679.43-1 677.98-1L677.98-1 667.03-1Q665.58-1 664.73-0.13 663.88 0.75 663.88 2.25L663.88 2.25Q663.88 3.75 664.73 4.65 665.58 5.55 667.03 5.55L667.03 5.55Z" opacity="1" transform="matrix(1,0,0,1,0,0)" fill="#ffffff" class="slogan-text-1" data-fill-palette-color="secondary" id="text-1"></path></svg></g></svg></g></svg></g></svg></g></svg></g></svg></g></svg></g><g mask="url(#35ff099a-947e-4ce2-82f2-c268d0cfe0ee)"><g transform="matrix(5.724948698071048, 0, 0, 5.724948698071048, 54.6356492187856, 0.9999999999999858)"><svg xmlns="http://www.w3.org/2000/svg" xmlns:xlink="http://www.w3.org/1999/xlink" version="1.1" x="0" y="0" viewBox="0.99988853931427 4.5849609375 50.000221252441406 42.830078125" style="enable-background:new 0 0 52 52;" xml:space="preserve" height="42.830078125" width="50.000221252441406" class="icon-none" data-fill-palette-color="accent" id="none"><g fill="#ffffff" data-fill-palette-color="accent"><g fill="#ffffff" data-fill-palette-color="accent"><g fill="#ffffff" data-fill-palette-color="accent"><path d="M17.697 47.415c-0.553 0-1-0.447-1-1v-2.613c0-0.553 0.447-1 1-1s1 0.447 1 1v2.613C18.697 46.968 18.25 47.415 17.697 47.415z" fill="#ffffff" data-fill-palette-color="accent"></path></g><g fill="#ffffff" data-fill-palette-color="accent"><path d="M23.232 47.415c-0.553 0-1-0.447-1-1v-2.613c0-0.553 0.447-1 1-1s1 0.447 1 1v2.613C24.232 46.968 23.785 47.415 23.232 47.415z" fill="#ffffff" data-fill-palette-color="accent"></path></g><g fill="#ffffff" data-fill-palette-color="accent"><path d="M28.767 47.415c-0.553 0-1-0.447-1-1v-2.613c0-0.553 0.447-1 1-1s1 0.447 1 1v2.613C29.767 46.968 29.319 47.415 28.767 47.415z" fill="#ffffff" data-fill-palette-color="accent"></path></g><g fill="#ffffff" data-fill-palette-color="accent"><path d="M34.302 47.415c-0.553 0-1-0.447-1-1v-2.613c0-0.553 0.447-1 1-1s1 0.447 1 1v2.613C35.302 46.968 34.854 47.415 34.302 47.415z" fill="#ffffff" data-fill-palette-color="accent"></path></g></g><g fill="#ffffff" data-fill-palette-color="accent"><path d="M38.439 47.415H13.569c-0.553 0-1-0.447-1-1V20.738l-3.859 4.98c-0.336 0.438-0.964 0.517-1.402 0.178l-5.92-4.58c-0.21-0.162-0.347-0.401-0.38-0.665-0.033-0.263 0.039-0.528 0.202-0.738l11.531-14.883c0.181-0.268 0.484-0.445 0.828-0.445h6.29c0.419 0 0.794 0.262 0.939 0.655 0.968 2.636 2.979 4.273 5.252 4.274 0.001 0 0.003 0 0.004 0 2.253-0.003 4.181-1.6 5.156-4.272 0.145-0.395 0.52-0.657 0.939-0.657h6.29c0.361 0 0.678 0.191 0.854 0.478l11.498 14.85c0.338 0.437 0.258 1.064-0.179 1.402l-5.91 4.581c-0.436 0.34-1.066 0.26-1.402-0.178l-3.861-4.98v25.677C39.439 46.968 38.992 47.415 38.439 47.415zM14.569 45.415h22.87V17.815c0-0.428 0.271-0.808 0.676-0.946 0.405-0.136 0.854-0.004 1.114 0.334l5.039 6.499 4.33-3.354-10.657-13.763H32.824c-1.346 3.056-3.888 4.926-6.768 4.929-0.002 0-0.004 0-0.006 0-2.93 0-5.508-1.87-6.864-4.929h-5.119L3.403 20.347l4.338 3.356 5.038-6.5c0.261-0.338 0.712-0.472 1.114-0.334 0.405 0.139 0.677 0.519 0.676 0.946V45.415zM38.439 5.595h0.01H38.439z" fill="#ffffff" data-fill-palette-color="accent"></path></g></g></svg></g></g></svg></g><defs></defs></svg><rect width="395.52" height="247.2" fill="none" stroke="none" visibility="hidden"></rect></g></svg></g></svg>